<?xml version="1.0" encoding="UTF-8" standalone="no"?>
<!DOCTYPE svg PUBLIC "-//W3C//DTD SVG 1.1//EN" "http://www.w3.org/Graphics/SVG/1.1/DTD/svg11.dtd">
<svg width="100%" height="100%" viewBox="0 0 32 16" version="1.1" xmlns="http://www.w3.org/2000/svg" xmlns:xlink="http://www.w3.org/1999/xlink" xml:space="preserve" xmlns:serif="http://www.serif.com/" style="fill-rule:evenodd;clip-rule:evenodd;">
    <g transform="matrix(0.0573051,0,0,0.0573051,-85.0498,-104.116)">
        <g transform="matrix(0.632101,-0.0377237,0.0377237,0.632101,1413.88,1665.94)">
            <path d="M845.1,439.659C845.136,439.783 845.173,439.906 845.21,440.03C845.223,440.07 845.213,440.097 845.18,440.11C845.173,440.11 845.167,440.113 845.16,440.12C845.147,440.127 845.137,440.12 845.13,440.1C845.115,439.954 845.105,439.807 845.1,439.659Z" style="fill:none;fill-rule:nonzero;stroke:rgb(57,170,187);stroke-width:2px;"/>
        </g>
        <g transform="matrix(1.04186,-0.0621779,0.0598837,1.00342,-615.133,868.572)">
            <path d="M2090.55,1295.94C2100.4,1292.16 2110.05,1286.94 2119.52,1280.29C2131.07,1272.17 2142.08,1262.49 2152.55,1251.25C2163.53,1239.46 2172.28,1227.79 2176.51,1223.11C2182.76,1229.67 2189.78,1237.61 2195.51,1243.77C2195.59,1243.84 2195.66,1243.92 2195.73,1244C2202.59,1251.38 2208.74,1258.41 2214.21,1264.43C2214.21,1264.43 2204.98,1272.95 2195.62,1279.69C2191.1,1282.95 2186.12,1285.5 2181.2,1288.1C2178.79,1289.37 2176.33,1290.54 2173.84,1291.62C2173.35,1291.83 2172.86,1292.04 2172.36,1292.25C2164.97,1295.33 2157.26,1297.65 2149.48,1299.42C2133.41,1303.07 2117.38,1303.04 2101.36,1299.32C2097.6,1298.54 2093.99,1297.41 2090.55,1295.94Z" style="fill:rgb(120,0,193);"/>
        </g>
        <g transform="matrix(0.821703,-0.0490392,0.053326,0.893534,1298.77,1553.95)">
            <path d="M678.898,392.638C680.57,393.022 682.234,393.423 683.887,393.84L693.157,396.38C680.817,401.22 670.327,406.34 661.687,411.74C645.362,421.944 630.112,435.123 615.895,449.292C607.374,457.785 599.224,466.633 591.437,475.41C582.037,486.01 567.312,501.026 557.542,511.436C554.968,510.59 560.465,514.963 558.265,512.416C555.085,508.736 553.481,506.883 553.455,506.856C547.621,500.956 542.116,495.957 536.376,489.937C526.389,479.397 515.756,470.47 505.756,459.93C505.116,459.257 504.178,458.198 503.824,457.178L515.893,447.098C523.626,440.969 535.623,430.176 538.172,428.381C542.378,425.414 547.208,420.976 550.642,418.971C571.158,406.99 583.807,390.829 607.067,386.538C621.534,383.869 636.739,386.609 651.721,388.112C660.901,389.033 670.023,390.598 678.898,392.638Z" style="fill:rgb(120,0,193);fill-rule:nonzero;"/>
        </g>
        <g transform="matrix(0.998224,-0.0595739,0.0595739,0.998224,-531.532,782.847)">
            <path d="M2214.45,1285.72C2213.92,1285.16 2213.39,1284.6 2212.85,1284.03C2212.58,1283.74 2212.35,1283.4 2212.15,1283.02L2248.84,1321.42C2247.8,1320.82 2246.81,1319.98 2245.88,1318.9C2243.86,1316.57 2242.85,1315.39 2242.83,1315.38C2239.12,1311.65 2235.47,1307.87 2231.84,1304.06C2226.03,1297.95 2220.25,1291.83 2214.45,1285.72Z" style="fill:rgb(143,143,143);"/>
        </g>
        <g transform="matrix(0.998224,-0.0595739,0.0595739,0.998224,-515.654,860.434)">
            <path d="M2402.21,1191.85L2402.21,1191.83C2407,1176.07 2411.96,1160.38 2416.8,1144.67C2416.86,1144.47 2417.05,1144.33 2417.26,1144.33C2417.41,1144.33 2417.55,1144.4 2417.64,1144.53L2418.78,1146.05C2419.51,1146.57 2420.32,1147.31 2421.22,1148.28C2428.41,1155.96 2434.27,1164.32 2438.76,1173.38C2441.83,1179.58 2444.5,1186.25 2446.79,1193.39C2453.69,1216.37 2453.6,1241.56 2445.09,1264.03C2443.71,1267.65 2442.24,1271.14 2440.64,1274.48C2440.56,1274.63 2440.49,1274.73 2440.44,1274.78C2440.74,1271.9 2440.9,1268.99 2440.9,1266.06C2440.9,1237.84 2426.36,1211.97 2402.21,1191.85Z" style="fill:rgb(209,10,255);"/>
        </g>
        <g transform="matrix(0.998224,-0.0595739,0.0595739,0.998224,-517.143,861.503)">
            <path d="M2209.11,1187.39C2210.23,1186.05 2221.44,1176.19 2221.82,1175.81C2230.6,1167.04 2239.28,1158.67 2249.12,1151.31C2250.55,1150.24 2252.01,1149.2 2253.49,1148.17C2269.83,1136.89 2287.29,1128.2 2305.88,1122.1C2310.69,1120.52 2316.07,1119.19 2322.01,1118.13C2340.28,1114.9 2358.22,1115.86 2375.86,1121.01L2384.27,1123.88C2392.66,1127.16 2400.43,1131.22 2407.47,1136.93C2407.72,1137.13 2407.83,1137.46 2407.76,1137.78C2406.58,1143.4 2405.37,1148.18 2404.24,1152.14C2401.3,1162.39 2398.09,1173.64 2394.52,1185.88C2390.73,1183.13 2386.75,1180.51 2382.59,1178.03C2379.12,1175.67 2375.56,1173.55 2371.91,1171.65C2359.96,1165.41 2347.21,1161.19 2334.25,1157.77C2333.53,1157.58 2332.85,1157.44 2332.2,1157.35C2328.66,1156.43 2325.07,1155.59 2321.42,1154.84C2315.8,1153.55 2310.02,1152.56 2304.21,1151.97C2294.72,1151.02 2285.14,1151.16 2275.98,1152.85C2261.25,1155.56 2247.39,1160.71 2234.39,1168.3C2232.22,1169.57 2229.8,1171.14 2227.14,1173.02C2225.52,1174.16 2218.33,1179.97 2213.43,1183.85L2212.12,1185.02L2210.37,1186.51C2210.37,1186.51 2209.6,1187.13 2209.05,1187.47C2209.07,1187.45 2209.09,1187.42 2209.11,1187.39Z" style="fill:rgb(209,10,255);"/>
        </g>
        <g transform="matrix(1.00056,-0.0597135,0.0595739,0.998224,-528.459,877.881)">
            <path d="M2436.34,1285.09C2436.53,1284.79 2437.19,1283.41 2437.19,1283.41C2437.19,1283.41 2436.51,1289.2 2433.8,1294.81C2427.75,1307.33 2424.02,1309.45 2417.07,1315.19C2399.4,1329.8 2373.56,1337.43 2344.89,1336.68C2333.8,1336.39 2322.29,1334.85 2310.67,1331.98L2332.68,1296.99C2375.73,1314.45 2419.62,1310.31 2436.34,1285.09Z" style="fill:url(#_Linear1);"/>
        </g>
        <g transform="matrix(0.928529,-0.0554145,0.0554145,0.928529,-371.449,948.049)">
            <path d="M1979.72,1272.94C1973.1,1258.9 1969.4,1243.26 1969.4,1226.79C1969.4,1202.74 1977.29,1180.46 1990.67,1162.31C1992.97,1159.19 1995.44,1156.21 1998.04,1153.33C1999.19,1152.05 2000.39,1150.77 2001.63,1149.5C2002.5,1148.6 2003.38,1147.72 2004.28,1146.85C2012.69,1138.73 2022.16,1132.07 2032.69,1126.88C2040.58,1123.05 2048.75,1120.33 2057.22,1118.72C2060.32,1118.13 2063.47,1117.69 2066.65,1117.4C2071.79,1116.7 2077.04,1116.34 2082.38,1116.34C2085.38,1116.34 2088.35,1116.45 2091.29,1116.68L2081.02,1139.4C2078.41,1144.86 2075.85,1150.29 2073.35,1155.66C2070.59,1161.6 2067.03,1169.07 2062.66,1178.1C2052.89,1198.28 2043.14,1218.47 2033.31,1238.63C2032.81,1239.65 2032.43,1240.34 2032.18,1240.71L2006.52,1292.62L2000.93,1303.31C1992.24,1294.47 1985.04,1284.22 1979.72,1272.94Z" style="fill:url(#_Linear2);"/>
        </g>
        <g transform="matrix(0.998224,-0.0595739,0.0595739,0.998224,-523.056,877.558)">
            <path d="M2250.3,1303.33C2246.93,1300.64 2232.11,1285.97 2232.11,1285.97L2163,1208C2163,1208 2143,1184 2133,1177C2120.16,1168.02 2101.21,1158.6 2085.53,1154.75C2085.53,1154.75 2085.52,1154.75 2085.51,1154.75C2085.39,1154.7 2085.31,1154.59 2085.31,1154.47L2085.41,1154.52L2101.93,1117.99C2112.98,1119.88 2128.36,1123.75 2139,1128C2148.57,1131.82 2157.63,1137.16 2165.78,1143.47C2174.13,1149.93 2181.46,1158.88 2189.1,1166.78C2206.37,1184.67 2252.27,1232.91 2269.42,1250.78C2276.89,1258.57 2283.9,1267.44 2292,1274C2299.93,1280.42 2309.02,1285.4 2318,1290.15C2319.61,1291 2321.22,1291.82 2322.84,1292.6C2322.44,1293.54 2321.62,1294.36 2321.17,1295.12C2315.07,1305.5 2311.02,1312.23 2308.91,1315.25C2305.66,1319.92 2302.58,1324.57 2299.73,1329.23C2299.41,1329.76 2299.5,1329.72 2298.92,1329.51C2291.79,1326.92 2284.93,1324.12 2278.36,1321.1C2268.16,1316.42 2258.96,1310.32 2250.3,1303.33Z" style="fill:url(#_Linear3);"/>
        </g>
        <g transform="matrix(0.999335,-0.0596402,0.0554145,0.928529,-513.684,956.537)">
            <path d="M2142.57,1318.87C2127.85,1327.92 2110.83,1333.74 2092.56,1335.3C2089.28,1335.59 2085.97,1335.73 2082.61,1335.73C2054.39,1335.73 2028.57,1325.58 2008.79,1308.83L2029.36,1267.17L2035.01,1255.99C2035.03,1255.96 2035.04,1255.94 2035.07,1255.91C2035.21,1255.74 2035.48,1255.72 2035.66,1255.87C2035.68,1255.89 2035.71,1255.92 2035.73,1255.94C2041.59,1264.04 2048.39,1271.39 2056.25,1277.89C2066.03,1285.76 2076.91,1291.73 2088.93,1295.63C2089.14,1295.7 2089.41,1295.74 2089.73,1295.75C2090.08,1295.76 2090.35,1295.82 2090.55,1295.94C2093.99,1297.41 2097.6,1298.54 2101.36,1299.32C2117.38,1303.04 2133.41,1303.07 2149.48,1299.42C2157.26,1297.65 2164.97,1295.33 2172.36,1292.25C2172.86,1292.04 2173.35,1291.83 2173.84,1291.62C2176.33,1290.54 2178.79,1289.37 2181.2,1288.1C2186.12,1285.5 2190.93,1282.71 2195.62,1279.69C2196.82,1278.92 2210.84,1267.06 2212.12,1266.33C2211.33,1267.37 2197.69,1279.45 2196.76,1280.35C2191.82,1285.09 2186.72,1289.65 2181.47,1294.02C2171.85,1302.04 2161.55,1308.98 2150.56,1314.85C2148.03,1316.2 2145.46,1317.5 2142.85,1318.74C2142.76,1318.78 2142.66,1318.83 2142.57,1318.87Z" style="fill:url(#_Linear4);"/>
        </g>
    </g>
    <defs>
        <linearGradient id="_Linear1" x1="0" y1="0" x2="1" y2="0" gradientUnits="userSpaceOnUse" gradientTransform="matrix(419.808,137.904,-137.581,420.792,1976.82,1178)"><stop offset="0" style="stop-color:rgb(72,126,252);stop-opacity:1"/><stop offset="0.21" style="stop-color:rgb(49,135,252);stop-opacity:1"/><stop offset="0.86" style="stop-color:rgb(204,1,236);stop-opacity:1"/><stop offset="1" style="stop-color:rgb(144,22,163);stop-opacity:1"/></linearGradient>
        <linearGradient id="_Linear2" x1="0" y1="0" x2="1" y2="0" gradientUnits="userSpaceOnUse" gradientTransform="matrix(452.376,148.255,-148.255,452.376,1966.18,1181.06)"><stop offset="0" style="stop-color:rgb(72,126,252);stop-opacity:1"/><stop offset="0.21" style="stop-color:rgb(49,135,252);stop-opacity:1"/><stop offset="1" style="stop-color:rgb(221,0,255);stop-opacity:1"/></linearGradient>
        <linearGradient id="_Linear3" x1="0" y1="0" x2="1" y2="0" gradientUnits="userSpaceOnUse" gradientTransform="matrix(420.792,137.904,-137.904,420.792,1976.04,1178)"><stop offset="0" style="stop-color:rgb(72,126,252);stop-opacity:1"/><stop offset="0.21" style="stop-color:rgb(49,135,252);stop-opacity:1"/><stop offset="1" style="stop-color:rgb(221,0,255);stop-opacity:1"/></linearGradient>
        <linearGradient id="_Linear4" x1="0" y1="0" x2="1" y2="0" gradientUnits="userSpaceOnUse" gradientTransform="matrix(420.324,148.255,-137.75,452.376,1969.2,1181.06)"><stop offset="0" style="stop-color:rgb(72,126,252);stop-opacity:1"/><stop offset="0.21" style="stop-color:rgb(49,135,252);stop-opacity:1"/><stop offset="1" style="stop-color:rgb(221,0,255);stop-opacity:1"/></linearGradient>
    </defs>
</svg>
